<svg xmlns="http://www.w3.org/2000/svg" xmlns:xlink="http://www.w3.org/1999/xlink" width="55" zoomAndPan="magnify" viewBox="0 0 41.25 41.250001" height="55" preserveAspectRatio="xMidYMid meet" version="1.0"><defs><clipPath id="74c0ddd7e6"><path d="M 10 16.125 L 39.699219 16.125 L 39.699219 22 L 10 22 Z M 10 16.125 " clip-rule="nonzero"/></clipPath><clipPath id="be993f02b6"><path d="M 0.660156 16.125 L 9 16.125 L 9 24.226562 L 0.660156 24.226562 Z M 0.660156 16.125 " clip-rule="nonzero"/></clipPath></defs><g clip-path="url(#74c0ddd7e6)"><path fill="#0043a5" d="M 13.246094 18.007812 L 14.511719 18.007812 L 12.546875 19.457031 L 14.285156 21.019531 L 12.902344 21.019531 L 11.394531 19.457031 Z M 11.613281 18.007812 L 11.160156 21.019531 L 10.207031 21.019531 L 10.65625 18.007812 Z M 15.628906 19.894531 L 15.460938 21.019531 L 14.507812 21.019531 L 14.960938 18.007812 L 15.914062 18.007812 L 15.75 19.089844 L 17.789062 19.089844 L 17.953125 18.007812 L 18.90625 18.007812 L 18.457031 21.019531 L 17.5 21.019531 L 17.671875 19.894531 Z M 21 17.300781 L 21.679688 17.300781 C 21.722656 17.300781 21.753906 17.304688 21.769531 17.304688 C 21.78125 17.308594 21.792969 17.308594 21.804688 17.3125 C 21.808594 17.316406 21.8125 17.324219 21.8125 17.332031 C 21.816406 17.351562 21.8125 17.367188 21.8125 17.382812 C 21.804688 17.421875 21.789062 17.449219 21.761719 17.460938 C 21.738281 17.472656 21.683594 17.488281 21.597656 17.5 C 21.574219 17.5 21.554688 17.503906 21.53125 17.511719 C 21.4375 17.523438 21.367188 17.539062 21.316406 17.558594 C 21.265625 17.582031 21.222656 17.617188 21.191406 17.675781 C 21.175781 17.699219 21.167969 17.726562 21.160156 17.753906 C 21.152344 17.785156 21.144531 17.839844 21.132812 17.917969 L 21.570312 17.917969 L 21.578125 17.863281 C 21.582031 17.859375 21.585938 17.851562 21.601562 17.84375 C 21.613281 17.835938 21.644531 17.828125 21.691406 17.828125 C 21.738281 17.824219 21.78125 17.816406 21.820312 17.8125 C 21.859375 17.808594 21.90625 17.800781 21.953125 17.785156 C 22 17.773438 22.046875 17.753906 22.089844 17.722656 C 22.132812 17.699219 22.164062 17.664062 22.179688 17.617188 C 22.199219 17.589844 22.214844 17.554688 22.226562 17.515625 C 22.238281 17.46875 22.25 17.421875 22.253906 17.375 C 22.265625 17.304688 22.265625 17.246094 22.257812 17.195312 C 22.25 17.144531 22.226562 17.101562 22.1875 17.066406 C 22.148438 17.03125 22.09375 17.003906 22.023438 16.988281 C 21.953125 16.972656 21.859375 16.964844 21.75 16.964844 L 21.050781 16.964844 Z M 20.550781 19.855469 L 21.730469 19.855469 L 21.304688 18.773438 Z M 20.105469 20.503906 L 19.746094 21.019531 L 18.683594 21.019531 L 20.816406 18.007812 L 22.039062 18.007812 L 23.25 21.019531 L 22.1875 21.019531 L 21.988281 20.503906 Z M 24.480469 20.121094 C 24.472656 20.1875 24.484375 20.230469 24.519531 20.253906 C 24.554688 20.277344 24.625 20.289062 24.734375 20.289062 L 26.46875 20.289062 C 26.570312 20.289062 26.644531 20.273438 26.699219 20.242188 C 26.75 20.210938 26.78125 20.171875 26.789062 20.121094 L 26.839844 19.777344 L 26.972656 18.902344 C 26.984375 18.832031 26.96875 18.78125 26.933594 18.757812 C 26.898438 18.730469 26.824219 18.71875 26.714844 18.71875 L 24.972656 18.71875 C 24.871094 18.71875 24.796875 18.734375 24.75 18.769531 C 24.699219 18.800781 24.671875 18.847656 24.664062 18.902344 Z M 23.824219 18.773438 C 23.839844 18.652344 23.871094 18.550781 23.910156 18.46875 C 23.953125 18.386719 24.015625 18.3125 24.105469 18.242188 C 24.179688 18.179688 24.261719 18.128906 24.355469 18.089844 C 24.441406 18.054688 24.550781 18.03125 24.679688 18.015625 C 24.832031 17.996094 24.984375 17.988281 25.136719 17.984375 C 25.3125 17.980469 25.585938 17.980469 25.953125 17.980469 C 26.324219 17.980469 26.597656 17.980469 26.773438 17.984375 C 26.949219 17.988281 27.097656 18 27.21875 18.015625 C 27.339844 18.03125 27.4375 18.054688 27.511719 18.089844 C 27.589844 18.125 27.65625 18.175781 27.714844 18.242188 C 27.78125 18.3125 27.824219 18.386719 27.839844 18.46875 C 27.855469 18.550781 27.855469 18.652344 27.835938 18.773438 L 27.769531 19.210938 L 27.617188 20.238281 C 27.597656 20.363281 27.566406 20.46875 27.527344 20.550781 C 27.484375 20.636719 27.421875 20.710938 27.332031 20.78125 C 27.257812 20.84375 27.175781 20.894531 27.082031 20.929688 C 26.992188 20.964844 26.886719 20.988281 26.757812 21.003906 C 26.628906 21.023438 26.472656 21.03125 26.285156 21.035156 C 26.101562 21.042969 25.832031 21.042969 25.484375 21.042969 C 25.132812 21.042969 24.867188 21.042969 24.683594 21.035156 C 24.53125 21.035156 24.378906 21.023438 24.226562 21.003906 C 24.101562 20.988281 24.003906 20.964844 23.929688 20.929688 C 23.851562 20.890625 23.78125 20.84375 23.722656 20.78125 C 23.65625 20.71875 23.617188 20.640625 23.597656 20.550781 C 23.582031 20.46875 23.585938 20.363281 23.601562 20.238281 Z M 32.042969 21.019531 L 31.09375 21.019531 L 31.441406 18.703125 L 30.09375 18.703125 L 30.199219 18.007812 L 33.796875 18.007812 L 33.691406 18.703125 L 32.390625 18.703125 Z M 34.769531 19.894531 L 34.597656 21.019531 L 33.644531 21.019531 L 34.097656 18.007812 L 35.050781 18.007812 L 34.886719 19.089844 L 36.929688 19.089844 L 37.089844 18.007812 L 38.046875 18.007812 L 37.59375 21.019531 L 36.640625 21.019531 L 36.808594 19.894531 Z M 38.386719 17.53125 L 39.433594 17.140625 L 39.558594 17.546875 L 38.496094 17.886719 Z M 39.34375 18.007812 L 38.890625 21.019531 L 37.9375 21.019531 L 38.390625 18.007812 Z M 39.34375 18.007812 " fill-opacity="1" fill-rule="nonzero"/></g><path fill="#00ccd6" d="M 17.515625 22.226562 L 17.371094 22.058594 L 16.191406 22.058594 L 16.070312 22.890625 L 17.417969 22.890625 Z M 18.046875 22.058594 L 17.875 23.21875 C 17.859375 23.324219 17.792969 23.378906 17.679688 23.386719 L 15.660156 23.386719 C 15.546875 23.378906 15.5 23.324219 15.515625 23.21875 L 15.742188 21.703125 C 15.753906 21.617188 15.820312 21.570312 15.933594 21.5625 L 17.617188 21.5625 Z M 21.402344 22.058594 L 21.203125 23.386719 L 20.699219 23.386719 L 20.875 22.226562 L 20.730469 22.058594 L 19.550781 22.058594 L 19.351562 23.386719 L 18.847656 23.386719 L 19.097656 21.703125 C 19.113281 21.617188 19.175781 21.570312 19.289062 21.5625 L 20.972656 21.5625 Z M 22.78125 22.890625 L 24.636719 22.890625 L 24.5625 23.386719 L 22.371094 23.386719 C 22.261719 23.378906 22.210938 23.324219 22.226562 23.21875 L 22.476562 21.5625 L 22.980469 21.5625 Z M 26.0625 23.386719 L 25.558594 23.386719 L 25.832031 21.5625 L 26.335938 21.5625 Z M 29.636719 22.058594 L 29.4375 23.386719 L 28.929688 23.386719 L 29.105469 22.226562 L 28.960938 22.058594 L 27.78125 22.058594 L 27.582031 23.386719 L 27.078125 23.386719 L 27.332031 21.703125 C 27.34375 21.617188 27.410156 21.570312 27.523438 21.5625 L 29.207031 21.5625 Z M 33.066406 21.5625 L 32.992188 22.058594 L 31.140625 22.058594 L 31.113281 22.226562 L 32.96875 22.226562 L 32.894531 22.722656 L 31.039062 22.722656 L 31.015625 22.890625 L 32.867188 22.890625 L 32.792969 23.386719 L 30.605469 23.386719 C 30.492188 23.378906 30.445312 23.324219 30.460938 23.21875 L 30.6875 21.703125 C 30.699219 21.617188 30.765625 21.570312 30.878906 21.5625 Z M 33.066406 21.5625 " fill-opacity="1" fill-rule="nonzero"/><g clip-path="url(#be993f02b6)"><path fill="#0043a5" d="M 8.1875 23.339844 C 8.179688 23.804688 7.800781 24.195312 7.332031 24.222656 C 7.179688 24.234375 7.03125 24.207031 6.894531 24.144531 L 6.640625 23.976562 L 4.421875 22.496094 L 6.085938 20.46875 L 7.945312 22.707031 L 8.015625 22.792969 C 8.128906 22.945312 8.191406 23.132812 8.1875 23.339844 Z M 4.601562 18.679688 L 3.695312 19.441406 C 3.417969 19.675781 3.097656 19.808594 2.738281 19.835938 C 2.375 19.867188 2.039062 19.792969 1.726562 19.609375 C 1.355469 19.394531 1.070312 19.101562 0.859375 18.730469 L 0.804688 18.628906 L 0.804688 17.21875 C 0.804688 17.074219 0.832031 16.933594 0.890625 16.800781 C 0.945312 16.664062 1.027344 16.546875 1.128906 16.445312 C 1.234375 16.339844 1.355469 16.261719 1.492188 16.207031 C 1.628906 16.152344 1.769531 16.125 1.917969 16.125 C 2.292969 16.125 2.601562 16.265625 2.839844 16.554688 Z M 4.601562 18.679688 " fill-opacity="1" fill-rule="nonzero"/><path fill="#00ccd6" d="M 8.070312 18.050781 L 7.890625 18.269531 L 6.085938 20.46875 L 4.421875 22.496094 L 3.316406 23.84375 C 3.222656 23.957031 3.113281 24.046875 2.980469 24.113281 C 2.847656 24.179688 2.707031 24.21875 2.558594 24.226562 C 2.414062 24.234375 2.269531 24.210938 2.132812 24.15625 C 1.992188 24.105469 1.871094 24.027344 1.765625 23.925781 L 1.050781 23.214844 C 0.886719 23.054688 0.804688 22.859375 0.804688 22.628906 L 0.804688 18.628906 L 0.859375 18.730469 C 1.070312 19.101562 1.355469 19.394531 1.726562 19.609375 C 2.039062 19.792969 2.375 19.867188 2.738281 19.839844 C 3.097656 19.808594 3.417969 19.675781 3.695312 19.441406 L 4.601562 18.679688 L 6.648438 16.960938 L 6.730469 16.890625 C 6.734375 16.886719 6.734375 16.886719 6.738281 16.886719 C 6.949219 16.730469 7.183594 16.675781 7.441406 16.722656 C 7.820312 16.785156 8.125 17.09375 8.179688 17.46875 C 8.210938 17.675781 8.175781 17.871094 8.070312 18.050781 Z M 8.070312 18.050781 " fill-opacity="1" fill-rule="nonzero"/></g></svg>