<svg xmlns="http://www.w3.org/2000/svg" xmlns:xlink="http://www.w3.org/1999/xlink" width="1600" zoomAndPan="magnify" viewBox="0 0 1200 179.999997" height="240" preserveAspectRatio="xMidYMid meet" version="1.0"><defs><g/><clipPath id="de93efabfa"><path d="M 882 39 L 915 39 L 915 104 L 882 104 Z M 882 39 " clip-rule="nonzero"/></clipPath><clipPath id="daabe76071"><path d="M 914.992188 39.28125 L 947.097656 71.382812 L 914.992188 103.484375 L 882.890625 71.382812 Z M 914.992188 39.28125 " clip-rule="nonzero"/></clipPath><clipPath id="619421747f"><path d="M 914.992188 39.28125 L 947.097656 71.382812 L 914.992188 103.484375 L 882.890625 71.382812 Z M 914.992188 39.28125 " clip-rule="nonzero"/></clipPath><clipPath id="996c5d1c60"><path d="M 264.683594 14.128906 L 306.660156 14.128906 L 306.660156 84.917969 L 264.683594 84.917969 Z M 264.683594 14.128906 " clip-rule="nonzero"/></clipPath></defs><g fill="#ffffff" fill-opacity="1"><g transform="translate(265.675229, 124.650775)"><g><path d="M 69.171875 -110.796875 L 101.296875 -110.796875 L 170.9375 0 L 134.546875 0 L 122.03125 -20.578125 L 48.28125 -20.578125 L 35.9375 0 L -0.46875 0 Z M 107.46875 -44.796875 L 85.15625 -81.828125 L 62.84375 -44.796875 Z M 107.46875 -44.796875 "/></g></g></g><g fill="#ffffff" fill-opacity="1"><g transform="translate(436.132362, 124.650775)"><g><path d="M 145.453125 -68.6875 L 145.453125 -42.265625 L 42.890625 -42.265625 L 42.890625 -27.375 L 149.578125 -27.375 L 149.578125 0 L 11.875 0 L 11.875 -110.796875 L 149.265625 -110.796875 L 149.265625 -83.421875 L 42.890625 -83.421875 L 42.890625 -68.6875 Z M 145.453125 -68.6875 "/></g></g></g><g fill="#ffffff" fill-opacity="1"><g transform="translate(594.560946, 124.650775)"><g><path d="M 49.546875 -27.375 L 154.484375 -27.375 L 154.484375 0 L 43.046875 0 C 33.128906 0 25.003906 -3.003906 18.671875 -9.015625 C 12.347656 -15.035156 9.1875 -22.738281 9.1875 -32.125 L 9.1875 -78.671875 C 9.1875 -88.054688 12.347656 -95.757812 18.671875 -101.78125 C 25.003906 -107.789062 33.128906 -110.796875 43.046875 -110.796875 L 153.0625 -110.796875 L 153.0625 -83.421875 L 49.546875 -83.421875 C 46.898438 -83.421875 44.679688 -82.546875 42.890625 -80.796875 C 41.097656 -79.054688 40.203125 -76.816406 40.203125 -74.078125 L 40.203125 -36.71875 C 40.203125 -33.976562 41.097656 -31.734375 42.890625 -29.984375 C 44.679688 -28.242188 46.898438 -27.375 49.546875 -27.375 Z M 49.546875 -27.375 "/></g></g></g><g fill="#ffffff" fill-opacity="1"><g transform="translate(755.205328, 124.650775)"><g><path d="M 11.875 -110.796875 L 42.890625 -110.796875 L 42.890625 -67.59375 L 73.28125 -67.59375 L 118.875 -110.796875 L 162.390625 -110.796875 L 101.78125 -54.296875 L 164.140625 0 L 120.609375 0 L 73.765625 -41.15625 L 42.890625 -41.15625 L 42.890625 0 L 11.875 0 Z M 11.875 -110.796875 "/></g></g></g><g clip-path="url(#de93efabfa)"><g clip-path="url(#daabe76071)"><g clip-path="url(#619421747f)"><path fill="#ffee00" d="M 914.820312 39.667969 L 882.910156 71.578125 L 914.585938 103.253906 Z M 914.820312 39.667969 " fill-opacity="1" fill-rule="nonzero"/><path fill="#ffee00" d="M 914.734375 103.617188 L 882.699219 71.578125 L 914.972656 39.300781 Z M 883.125 71.578125 L 914.4375 102.890625 L 914.667969 40.035156 Z M 883.125 71.578125 " fill-opacity="1" fill-rule="nonzero"/></g></g></g><g clip-path="url(#996c5d1c60)"><path fill="#ffee00" d="M 264.683594 84.890625 L 264.695312 49.527344 L 264.703125 14.164062 C 278.828125 14.183594 292.949219 14.203125 307.074219 14.226562 C 292.945312 37.78125 278.8125 61.335938 264.683594 84.890625 " fill-opacity="1" fill-rule="nonzero"/></g><g fill="#ffffff" fill-opacity="1"><g transform="translate(447.777344, 168.147035)"><g><path d="M 24.390625 -17.671875 L 24.390625 -13.3125 L 14.890625 -13.3125 L 14.890625 0 L 9.953125 0 L 9.953125 -13.3125 L 0.453125 -13.3125 L 0.453125 -17.671875 Z M 24.390625 -17.671875 "/></g></g></g><g fill="#ffffff" fill-opacity="1"><g transform="translate(485.241655, 168.147035)"><g><path d="M 19.671875 0 L 1.890625 0 L 1.890625 -4.375 L 19.5 -4.375 C 19.664062 -4.375 19.800781 -4.421875 19.90625 -4.515625 C 20.019531 -4.617188 20.078125 -4.753906 20.078125 -4.921875 L 20.078125 -6.1875 C 20.078125 -6.351562 20.019531 -6.484375 19.90625 -6.578125 C 19.800781 -6.679688 19.664062 -6.734375 19.5 -6.734375 L 6.46875 -6.734375 C 4.757812 -6.734375 3.4375 -7.140625 2.5 -7.953125 C 1.570312 -8.765625 1.109375 -9.898438 1.109375 -11.359375 L 1.109375 -13.03125 C 1.109375 -14.488281 1.578125 -15.625 2.515625 -16.4375 C 3.460938 -17.257812 4.78125 -17.671875 6.46875 -17.671875 L 23.609375 -17.671875 L 23.609375 -13.3125 L 6.640625 -13.3125 C 6.472656 -13.3125 6.332031 -13.257812 6.21875 -13.15625 C 6.113281 -13.050781 6.0625 -12.914062 6.0625 -12.75 L 6.0625 -11.515625 C 6.0625 -11.347656 6.113281 -11.210938 6.21875 -11.109375 C 6.332031 -11.003906 6.472656 -10.953125 6.640625 -10.953125 L 19.671875 -10.953125 C 21.347656 -10.953125 22.65625 -10.546875 23.59375 -9.734375 C 24.539062 -8.921875 25.015625 -7.789062 25.015625 -6.34375 L 25.015625 -4.59375 C 25.015625 -3.144531 24.539062 -2.015625 23.59375 -1.203125 C 22.65625 -0.398438 21.347656 0 19.671875 0 Z M 19.671875 0 "/></g></g></g><g fill="#ffffff" fill-opacity="1"><g transform="translate(523.841977, 168.147035)"><g><path d="M 11.03125 -17.671875 L 16.15625 -17.671875 L 27.265625 0 L 21.46875 0 L 19.46875 -3.28125 L 7.703125 -3.28125 L 5.734375 0 L -0.078125 0 Z M 17.140625 -7.140625 L 13.578125 -13.046875 L 10.03125 -7.140625 Z M 17.140625 -7.140625 "/></g></g></g><g fill="#ffffff" fill-opacity="1"><g transform="translate(563.654056, 168.147035)"><g/></g></g><g fill="#ffffff" fill-opacity="1"><g transform="translate(589.530954, 168.147035)"><g><path d="M 15.21875 -19.546875 L 18.5625 -19.546875 L 3.734375 2 L 0.375 2 Z M 15.21875 -19.546875 "/></g></g></g><g fill="#ffffff" fill-opacity="1"><g transform="translate(621.113205, 168.147035)"><g/></g></g><g fill="#ffffff" fill-opacity="1"><g transform="translate(646.990104, 168.147035)"><g><path d="M 1.890625 -17.671875 L 6.84375 -17.671875 L 6.84375 -10.8125 L 20 -10.8125 L 20 -17.671875 L 24.953125 -17.671875 L 24.953125 0 L 20 0 L 20 -6.4375 L 6.84375 -6.4375 L 6.84375 0 L 1.890625 0 Z M 1.890625 -17.671875 "/></g></g></g><g fill="#ffffff" fill-opacity="1"><g transform="translate(686.448756, 168.147035)"><g><path d="M 19.671875 0 L 1.890625 0 L 1.890625 -4.375 L 19.5 -4.375 C 19.664062 -4.375 19.800781 -4.421875 19.90625 -4.515625 C 20.019531 -4.617188 20.078125 -4.753906 20.078125 -4.921875 L 20.078125 -6.1875 C 20.078125 -6.351562 20.019531 -6.484375 19.90625 -6.578125 C 19.800781 -6.679688 19.664062 -6.734375 19.5 -6.734375 L 6.46875 -6.734375 C 4.757812 -6.734375 3.4375 -7.140625 2.5 -7.953125 C 1.570312 -8.765625 1.109375 -9.898438 1.109375 -11.359375 L 1.109375 -13.03125 C 1.109375 -14.488281 1.578125 -15.625 2.515625 -16.4375 C 3.460938 -17.257812 4.78125 -17.671875 6.46875 -17.671875 L 23.609375 -17.671875 L 23.609375 -13.3125 L 6.640625 -13.3125 C 6.472656 -13.3125 6.332031 -13.257812 6.21875 -13.15625 C 6.113281 -13.050781 6.0625 -12.914062 6.0625 -12.75 L 6.0625 -11.515625 C 6.0625 -11.347656 6.113281 -11.210938 6.21875 -11.109375 C 6.332031 -11.003906 6.472656 -10.953125 6.640625 -10.953125 L 19.671875 -10.953125 C 21.347656 -10.953125 22.65625 -10.546875 23.59375 -9.734375 C 24.539062 -8.921875 25.015625 -7.789062 25.015625 -6.34375 L 25.015625 -4.59375 C 25.015625 -3.144531 24.539062 -2.015625 23.59375 -1.203125 C 22.65625 -0.398438 21.347656 0 19.671875 0 Z M 19.671875 0 "/></g></g></g><g fill="#ffffff" fill-opacity="1"><g transform="translate(725.049075, 168.147035)"><g><path d="M 11.03125 -17.671875 L 16.15625 -17.671875 L 27.265625 0 L 21.46875 0 L 19.46875 -3.28125 L 7.703125 -3.28125 L 5.734375 0 L -0.078125 0 Z M 17.140625 -7.140625 L 13.578125 -13.046875 L 10.03125 -7.140625 Z M 17.140625 -7.140625 "/></g></g></g></svg>