<svg xmlns="http://www.w3.org/2000/svg" xmlns:xlink="http://www.w3.org/1999/xlink" width="800" zoomAndPan="magnify" viewBox="0 0 600 89.999999" height="120" preserveAspectRatio="xMidYMid meet" version="1.0"><defs><g/><clipPath id="0639a5248d"><path d="M 424 21 L 439 21 L 439 50 L 424 50 Z M 424 21 " clip-rule="nonzero"/></clipPath><clipPath id="3283f5f510"><path d="M 438.664062 21.664062 L 452.796875 35.796875 L 438.664062 49.929688 L 424.53125 35.796875 Z M 438.664062 21.664062 " clip-rule="nonzero"/></clipPath><clipPath id="0a62fda3a4"><path d="M 438.664062 21.664062 L 452.796875 35.796875 L 438.664062 49.929688 L 424.53125 35.796875 Z M 438.664062 21.664062 " clip-rule="nonzero"/></clipPath><clipPath id="760bf03a3d"><path d="M 152.390625 10.59375 L 170.867188 10.59375 L 170.867188 41.753906 L 152.390625 41.753906 Z M 152.390625 10.59375 " clip-rule="nonzero"/></clipPath></defs><g fill="#ffffff" fill-opacity="1"><g transform="translate(152.825463, 59.245925)"><g><path d="M 30.453125 -48.765625 L 44.59375 -48.765625 L 75.25 0 L 59.21875 0 L 53.71875 -9.0625 L 21.25 -9.0625 L 15.8125 0 L -0.203125 0 Z M 47.3125 -19.71875 L 37.484375 -36.015625 L 27.65625 -19.71875 Z M 47.3125 -19.71875 "/></g></g></g><g fill="#ffffff" fill-opacity="1"><g transform="translate(227.863113, 59.245925)"><g><path d="M 64.03125 -30.234375 L 64.03125 -18.609375 L 18.875 -18.609375 L 18.875 -12.046875 L 65.84375 -12.046875 L 65.84375 0 L 5.21875 0 L 5.21875 -48.765625 L 65.703125 -48.765625 L 65.703125 -36.71875 L 18.875 -36.71875 L 18.875 -30.234375 Z M 64.03125 -30.234375 "/></g></g></g><g fill="#ffffff" fill-opacity="1"><g transform="translate(297.605626, 59.245925)"><g><path d="M 21.8125 -12.046875 L 68 -12.046875 L 68 0 L 18.953125 0 C 14.585938 0 11.007812 -1.320312 8.21875 -3.96875 C 5.4375 -6.613281 4.046875 -10.003906 4.046875 -14.140625 L 4.046875 -34.625 C 4.046875 -38.757812 5.4375 -42.148438 8.21875 -44.796875 C 11.007812 -47.441406 14.585938 -48.765625 18.953125 -48.765625 L 67.375 -48.765625 L 67.375 -36.71875 L 21.8125 -36.71875 C 20.644531 -36.71875 19.664062 -36.332031 18.875 -35.5625 C 18.09375 -34.800781 17.703125 -33.816406 17.703125 -32.609375 L 17.703125 -16.15625 C 17.703125 -14.957031 18.09375 -13.972656 18.875 -13.203125 C 19.664062 -12.429688 20.644531 -12.046875 21.8125 -12.046875 Z M 21.8125 -12.046875 "/></g></g></g><g fill="#ffffff" fill-opacity="1"><g transform="translate(368.323565, 59.245925)"><g><path d="M 5.21875 -48.765625 L 18.875 -48.765625 L 18.875 -29.75 L 32.265625 -29.75 L 52.328125 -48.765625 L 71.484375 -48.765625 L 44.796875 -23.890625 L 72.25 0 L 53.09375 0 L 32.46875 -18.109375 L 18.875 -18.109375 L 18.875 0 L 5.21875 0 Z M 5.21875 -48.765625 "/></g></g></g><g clip-path="url(#0639a5248d)"><g clip-path="url(#3283f5f510)"><g clip-path="url(#0a62fda3a4)"><path fill="#ffee00" d="M 438.589844 21.835938 L 424.542969 35.882812 L 438.484375 49.828125 Z M 438.589844 21.835938 " fill-opacity="1" fill-rule="nonzero"/><path fill="#ffee00" d="M 438.550781 49.984375 L 424.449219 35.882812 L 438.65625 21.675781 Z M 424.636719 35.882812 L 438.417969 49.667969 L 438.523438 21.996094 Z M 424.636719 35.882812 " fill-opacity="1" fill-rule="nonzero"/></g></g></g><g clip-path="url(#760bf03a3d)"><path fill="#ffee00" d="M 152.390625 41.742188 L 152.394531 26.175781 L 152.398438 10.605469 C 158.613281 10.617188 164.832031 10.625 171.050781 10.636719 C 164.828125 21.003906 158.609375 31.375 152.390625 41.742188 " fill-opacity="1" fill-rule="nonzero"/></g><g fill="#ffffff" fill-opacity="1"><g transform="translate(232.989411, 78.393591)"><g><path d="M 10.734375 -7.78125 L 10.734375 -5.859375 L 6.546875 -5.859375 L 6.546875 0 L 4.375 0 L 4.375 -5.859375 L 0.203125 -5.859375 L 0.203125 -7.78125 Z M 10.734375 -7.78125 "/></g></g></g><g fill="#ffffff" fill-opacity="1"><g transform="translate(249.481733, 78.393591)"><g><path d="M 8.65625 0 L 0.828125 0 L 0.828125 -1.921875 L 8.578125 -1.921875 C 8.648438 -1.921875 8.707031 -1.941406 8.75 -1.984375 C 8.800781 -2.035156 8.828125 -2.097656 8.828125 -2.171875 L 8.828125 -2.71875 C 8.828125 -2.789062 8.800781 -2.847656 8.75 -2.890625 C 8.707031 -2.941406 8.648438 -2.96875 8.578125 -2.96875 L 2.84375 -2.96875 C 2.09375 -2.96875 1.507812 -3.144531 1.09375 -3.5 C 0.6875 -3.851562 0.484375 -4.351562 0.484375 -5 L 0.484375 -5.734375 C 0.484375 -6.378906 0.691406 -6.878906 1.109375 -7.234375 C 1.523438 -7.597656 2.101562 -7.78125 2.84375 -7.78125 L 10.390625 -7.78125 L 10.390625 -5.859375 L 2.921875 -5.859375 C 2.847656 -5.859375 2.785156 -5.832031 2.734375 -5.78125 C 2.691406 -5.738281 2.671875 -5.679688 2.671875 -5.609375 L 2.671875 -5.0625 C 2.671875 -4.988281 2.691406 -4.929688 2.734375 -4.890625 C 2.785156 -4.847656 2.847656 -4.828125 2.921875 -4.828125 L 8.65625 -4.828125 C 9.394531 -4.828125 9.972656 -4.644531 10.390625 -4.28125 C 10.804688 -3.925781 11.015625 -3.425781 11.015625 -2.78125 L 11.015625 -2.015625 C 11.015625 -1.378906 10.804688 -0.882812 10.390625 -0.53125 C 9.972656 -0.175781 9.394531 0 8.65625 0 Z M 8.65625 0 "/></g></g></g><g fill="#ffffff" fill-opacity="1"><g transform="translate(266.474143, 78.393591)"><g><path d="M 4.859375 -7.78125 L 7.109375 -7.78125 L 12 0 L 9.4375 0 L 8.5625 -1.4375 L 3.390625 -1.4375 L 2.515625 0 L -0.03125 0 Z M 7.546875 -3.140625 L 5.984375 -5.75 L 4.40625 -3.140625 Z M 7.546875 -3.140625 "/></g></g></g><g fill="#ffffff" fill-opacity="1"><g transform="translate(295.391364, 78.393591)"><g><path d="M 6.703125 -8.59375 L 8.171875 -8.59375 L 1.640625 0.875 L 0.171875 0.875 Z M 6.703125 -8.59375 "/></g></g></g><g fill="#ffffff" fill-opacity="1"><g transform="translate(309.294319, 78.393591)"><g/></g></g><g fill="#ffffff" fill-opacity="1"><g transform="translate(320.685697, 78.393591)"><g><path d="M 0.828125 -7.78125 L 3.015625 -7.78125 L 3.015625 -4.75 L 8.796875 -4.75 L 8.796875 -7.78125 L 10.96875 -7.78125 L 10.96875 0 L 8.796875 0 L 8.796875 -2.828125 L 3.015625 -2.828125 L 3.015625 0 L 0.828125 0 Z M 0.828125 -7.78125 "/></g></g></g><g fill="#ffffff" fill-opacity="1"><g transform="translate(338.055956, 78.393591)"><g><path d="M 8.65625 0 L 0.828125 0 L 0.828125 -1.921875 L 8.578125 -1.921875 C 8.648438 -1.921875 8.707031 -1.941406 8.75 -1.984375 C 8.800781 -2.035156 8.828125 -2.097656 8.828125 -2.171875 L 8.828125 -2.71875 C 8.828125 -2.789062 8.800781 -2.847656 8.75 -2.890625 C 8.707031 -2.941406 8.648438 -2.96875 8.578125 -2.96875 L 2.84375 -2.96875 C 2.09375 -2.96875 1.507812 -3.144531 1.09375 -3.5 C 0.6875 -3.851562 0.484375 -4.351562 0.484375 -5 L 0.484375 -5.734375 C 0.484375 -6.378906 0.691406 -6.878906 1.109375 -7.234375 C 1.523438 -7.597656 2.101562 -7.78125 2.84375 -7.78125 L 10.390625 -7.78125 L 10.390625 -5.859375 L 2.921875 -5.859375 C 2.847656 -5.859375 2.785156 -5.832031 2.734375 -5.78125 C 2.691406 -5.738281 2.671875 -5.679688 2.671875 -5.609375 L 2.671875 -5.0625 C 2.671875 -4.988281 2.691406 -4.929688 2.734375 -4.890625 C 2.785156 -4.847656 2.847656 -4.828125 2.921875 -4.828125 L 8.65625 -4.828125 C 9.394531 -4.828125 9.972656 -4.644531 10.390625 -4.28125 C 10.804688 -3.925781 11.015625 -3.425781 11.015625 -2.78125 L 11.015625 -2.015625 C 11.015625 -1.378906 10.804688 -0.882812 10.390625 -0.53125 C 9.972656 -0.175781 9.394531 0 8.65625 0 Z M 8.65625 0 "/></g></g></g><g fill="#ffffff" fill-opacity="1"><g transform="translate(355.048365, 78.393591)"><g><path d="M 4.859375 -7.78125 L 7.109375 -7.78125 L 12 0 L 9.4375 0 L 8.5625 -1.4375 L 3.390625 -1.4375 L 2.515625 0 L -0.03125 0 Z M 7.546875 -3.140625 L 5.984375 -5.75 L 4.40625 -3.140625 Z M 7.546875 -3.140625 "/></g></g></g></svg>