<svg xmlns="http://www.w3.org/2000/svg" xmlns:xlink="http://www.w3.org/1999/xlink" width="55" zoomAndPan="magnify" viewBox="0 0 41.25 41.250001" height="55" preserveAspectRatio="xMidYMid meet" version="1.0"><defs><clipPath id="348eeae2f4"><path d="M 26 15 L 26.074219 15 L 26.074219 15.746094 L 26 15.746094 Z M 26 15 " clip-rule="nonzero"/></clipPath><clipPath id="07527b1bd2"><path d="M 20.257812 9.925781 L 26.886719 9.925781 L 26.886719 16.554688 L 20.257812 16.554688 Z M 20.257812 9.925781 " clip-rule="nonzero"/></clipPath><clipPath id="4587ecc8bb"><path d="M 20.257812 6.257812 L 29.832031 6.257812 L 29.832031 16.570312 L 20.257812 16.570312 Z M 20.257812 6.257812 " clip-rule="nonzero"/></clipPath><clipPath id="fc7287d27d"><path d="M 22 7 L 29.832031 7 L 29.832031 15 L 22 15 Z M 22 7 " clip-rule="nonzero"/></clipPath></defs><path fill="#00803d" d="M 19.886719 1.523438 L 20.921875 1.523438 C 24.03125 1.625 27.121094 2.484375 29.8125 4.0625 C 32.929688 5.867188 35.507812 8.582031 37.15625 11.796875 C 38.8125 15 39.519531 18.6875 39.171875 22.28125 C 38.910156 25.101562 37.996094 27.859375 36.53125 30.28125 C 35.011719 32.792969 32.902344 34.945312 30.425781 36.503906 C 27.964844 38.058594 25.140625 39.027344 22.246094 39.296875 C 21.800781 39.335938 21.355469 39.382812 20.910156 39.429688 L 20.15625 39.429688 C 18.1875 39.308594 16.207031 39.03125 14.339844 38.367188 C 11.085938 37.25 8.160156 35.210938 5.96875 32.550781 C 4.046875 30.230469 2.6875 27.441406 2.054688 24.488281 C 1.222656 20.65625 1.605469 16.5625 3.160156 12.960938 C 4.703125 9.335938 7.414062 6.230469 10.78125 4.210938 C 13.519531 2.542969 16.691406 1.632812 19.886719 1.523438 Z M 18.984375 2.609375 C 16.5 2.8125 14.0625 3.550781 11.878906 4.765625 C 8.824219 6.457031 6.28125 9.074219 4.675781 12.1875 C 3.101562 15.210938 2.433594 18.699219 2.75 22.09375 C 3.015625 25.066406 4.042969 27.960938 5.703125 30.429688 C 7.65625 33.351562 10.484375 35.675781 13.730469 37.003906 C 16.636719 38.203125 19.867188 38.605469 22.976562 38.140625 C 25.898438 37.71875 28.710938 36.539062 31.074219 34.753906 C 33.140625 33.203125 34.863281 31.195312 36.09375 28.914062 C 37.652344 26.027344 38.398438 22.699219 38.214844 19.421875 C 38.058594 16.601562 37.226562 13.824219 35.804688 11.394531 C 34.054688 8.386719 31.410156 5.910156 28.296875 4.378906 C 25.429688 2.949219 22.171875 2.34375 18.984375 2.609375 Z M 18.984375 2.609375 " fill-opacity="1" fill-rule="nonzero"/><path fill="#00803d" d="M 13.523438 5.386719 C 13.832031 5.207031 14.144531 5.042969 14.453125 4.867188 C 14.453125 12.285156 14.457031 19.703125 14.453125 27.117188 C 15.253906 26.277344 16.449219 26.003906 17.5625 25.910156 C 23.820312 25.894531 30.074219 25.898438 36.332031 25.882812 C 36.214844 26.214844 36.085938 26.542969 35.964844 26.875 C 29.769531 26.882812 23.578125 26.875 17.382812 26.878906 C 16.226562 26.875 15.074219 27.480469 14.449219 28.464844 C 14.414062 29 14.449219 29.542969 14.433594 30.082031 C 15.242188 29.238281 16.441406 28.96875 17.5625 28.878906 C 23.382812 28.871094 29.203125 28.847656 35.023438 28.847656 C 34.792969 29.167969 34.632812 29.558594 34.355469 29.835938 C 28.941406 29.855469 23.527344 29.839844 18.113281 29.847656 C 17.660156 29.851562 17.203125 29.816406 16.753906 29.902344 C 15.832031 30.070312 14.96875 30.621094 14.457031 31.414062 C 14.40625 31.902344 14.449219 32.398438 14.4375 32.890625 C 15.25 32.0625 16.4375 31.792969 17.554688 31.695312 C 22.699219 31.691406 27.839844 31.667969 32.984375 31.671875 C 32.664062 32 32.378906 32.371094 32.03125 32.664062 C 27.117188 32.679688 22.199219 32.664062 17.285156 32.671875 C 16.070312 32.699219 14.867188 33.414062 14.332031 34.515625 C 14.199219 34.996094 13.890625 35.449219 13.9375 35.957031 C 13.777344 35.152344 13.5625 34.3125 13.003906 33.683594 C 12.347656 32.921875 11.300781 32.578125 10.320312 32.648438 C 9.890625 32.660156 9.457031 32.679688 9.027344 32.683594 C 8.898438 32.714844 8.824219 32.59375 8.746094 32.523438 C 8.472656 32.234375 8.199219 31.953125 7.925781 31.667969 C 8.84375 31.683594 9.761719 31.703125 10.683594 31.722656 C 11.394531 31.734375 12.136719 31.871094 12.730469 32.296875 C 13.054688 32.523438 13.300781 32.835938 13.507812 33.171875 C 13.488281 32.679688 13.523438 32.183594 13.492188 31.691406 C 13.09375 30.578125 11.945312 29.804688 10.773438 29.816406 C 9.367188 29.828125 7.953125 29.855469 6.542969 29.871094 C 6.355469 29.566406 6.15625 29.269531 5.980469 28.957031 C 7.519531 28.960938 9.054688 28.972656 10.589844 28.980469 C 11.683594 29.054688 12.859375 29.417969 13.519531 30.359375 C 13.511719 29.878906 13.519531 29.398438 13.519531 28.917969 C 13.539062 28.640625 13.386719 28.402344 13.25 28.175781 C 12.730469 27.335938 11.765625 26.792969 10.777344 26.800781 C 8.851562 26.8125 6.925781 26.835938 4.996094 26.851562 C 4.851562 26.519531 4.710938 26.1875 4.566406 25.855469 C 6.574219 25.855469 8.578125 25.851562 10.585938 25.859375 C 11.679688 25.960938 12.859375 26.328125 13.507812 27.289062 C 13.503906 19.988281 13.527344 12.6875 13.523438 5.386719 Z M 13.523438 5.386719 " fill-opacity="1" fill-rule="nonzero"/><path fill="#00803d" d="M 26.589844 22.546875 C 26.558594 21.730469 27.167969 20.894531 28.011719 20.839844 C 28.746094 20.722656 29.546875 21.230469 29.625 22.003906 C 29.394531 22.007812 29.164062 22.007812 28.933594 22.003906 C 28.8125 21.378906 27.941406 21.265625 27.578125 21.730469 C 27.226562 22.21875 27.222656 22.964844 27.601562 23.4375 C 28.027344 23.921875 28.992188 23.710938 29.019531 23.003906 C 28.765625 23 28.511719 23 28.253906 23 C 28.253906 22.8125 28.257812 22.625 28.257812 22.4375 C 28.71875 22.4375 29.175781 22.445312 29.632812 22.433594 C 29.660156 23.035156 29.640625 23.636719 29.644531 24.238281 C 29.496094 24.238281 29.34375 24.238281 29.195312 24.238281 C 29.175781 24.117188 29.152344 23.996094 29.132812 23.875 C 28.816406 24.257812 28.292969 24.402344 27.816406 24.28125 C 27.042969 24.121094 26.539062 23.316406 26.589844 22.546875 Z M 26.589844 22.546875 " fill-opacity="1" fill-rule="nonzero"/><path fill="#00803d" d="M 16.609375 20.914062 C 17.160156 20.921875 17.714844 20.898438 18.265625 20.921875 C 18.847656 20.96875 19.332031 21.429688 19.472656 21.984375 C 19.699219 22.808594 19.421875 23.917969 18.519531 24.179688 C 17.890625 24.304688 17.246094 24.207031 16.613281 24.238281 C 16.601562 23.757812 16.609375 23.273438 16.605469 22.792969 C 16.53125 22.789062 16.378906 22.789062 16.300781 22.789062 C 16.300781 22.609375 16.300781 22.429688 16.300781 22.25 C 16.378906 22.25 16.53125 22.246094 16.609375 22.246094 C 16.609375 21.804688 16.609375 21.359375 16.609375 20.914062 Z M 17.355469 21.53125 C 17.355469 21.769531 17.355469 22.007812 17.355469 22.246094 C 17.609375 22.246094 17.859375 22.25 18.109375 22.253906 C 18.105469 22.433594 18.105469 22.613281 18.101562 22.792969 C 17.855469 22.789062 17.605469 22.789062 17.355469 22.792969 C 17.355469 23.066406 17.355469 23.34375 17.355469 23.617188 C 17.636719 23.617188 17.921875 23.640625 18.199219 23.601562 C 18.589844 23.527344 18.804688 23.117188 18.816406 22.746094 C 18.839844 22.382812 18.789062 21.953125 18.484375 21.707031 C 18.167969 21.449219 17.734375 21.542969 17.355469 21.53125 Z M 17.355469 21.53125 " fill-opacity="1" fill-rule="nonzero"/><path fill="#00803d" d="M 19.933594 20.914062 C 20.175781 20.914062 20.417969 20.914062 20.660156 20.914062 C 20.660156 21.339844 20.660156 21.761719 20.660156 22.1875 C 21.105469 22.1875 21.550781 22.1875 21.996094 22.1875 C 22 21.761719 21.996094 21.339844 22 20.914062 C 22.246094 20.914062 22.496094 20.914062 22.746094 20.914062 C 22.746094 22.023438 22.753906 23.132812 22.742188 24.238281 C 22.496094 24.238281 22.25 24.238281 22.003906 24.242188 C 21.988281 23.761719 22 23.28125 21.996094 22.804688 C 21.550781 22.800781 21.105469 22.800781 20.660156 22.804688 C 20.660156 23.28125 20.664062 23.761719 20.65625 24.238281 C 20.414062 24.238281 20.175781 24.238281 19.933594 24.238281 C 19.933594 23.128906 19.933594 22.023438 19.933594 20.914062 Z M 19.933594 20.914062 " fill-opacity="1" fill-rule="nonzero"/><path fill="#00803d" d="M 23.621094 21.265625 C 24.265625 20.660156 25.398438 20.710938 25.964844 21.398438 C 26.503906 22.089844 26.472656 23.148438 25.917969 23.820312 C 26.054688 23.945312 26.191406 24.070312 26.328125 24.191406 C 26.21875 24.3125 26.109375 24.429688 26 24.550781 C 25.84375 24.414062 25.691406 24.277344 25.539062 24.140625 C 24.988281 24.398438 24.289062 24.410156 23.785156 24.042969 C 22.921875 23.421875 22.867188 21.992188 23.621094 21.265625 Z M 24.011719 21.847656 C 23.75 22.332031 23.753906 22.996094 24.105469 23.433594 C 24.328125 23.703125 24.703125 23.722656 25.023438 23.679688 C 24.929688 23.582031 24.828125 23.492188 24.742188 23.386719 C 24.800781 23.234375 24.945312 23.132812 25.042969 23.003906 C 25.175781 23.121094 25.308594 23.238281 25.441406 23.355469 C 25.691406 22.871094 25.714844 22.238281 25.402344 21.777344 C 25.066406 21.324219 24.296875 21.359375 24.011719 21.847656 Z M 24.011719 21.847656 " fill-opacity="1" fill-rule="nonzero"/><path fill="#00803d" d="M 32.222656 20.914062 C 32.464844 20.914062 32.703125 20.914062 32.945312 20.914062 C 32.9375 22.023438 32.960938 23.136719 32.933594 24.246094 C 32.691406 24.238281 32.445312 24.238281 32.203125 24.238281 C 32.199219 23.757812 32.203125 23.28125 32.199219 22.800781 C 31.753906 22.800781 31.308594 22.800781 30.863281 22.804688 C 30.863281 23.28125 30.863281 23.757812 30.863281 24.238281 C 30.613281 24.238281 30.363281 24.238281 30.117188 24.238281 C 30.121094 23.128906 30.128906 22.023438 30.132812 20.914062 C 30.382812 20.914062 30.632812 20.914062 30.882812 20.914062 C 30.882812 21.339844 30.882812 21.761719 30.882812 22.1875 C 31.328125 22.1875 31.773438 22.1875 32.21875 22.1875 C 32.21875 21.761719 32.214844 21.335938 32.222656 20.914062 Z M 32.222656 20.914062 " fill-opacity="1" fill-rule="nonzero"/><path fill="#00803d" d="M 33.460938 20.914062 C 33.707031 20.914062 33.953125 20.914062 34.199219 20.921875 C 34.644531 21.664062 35.105469 22.398438 35.566406 23.128906 C 35.570312 22.390625 35.566406 21.652344 35.566406 20.914062 C 35.792969 20.914062 36.023438 20.914062 36.25 20.914062 C 36.25 22.019531 36.246094 23.125 36.253906 24.230469 C 36.007812 24.238281 35.761719 24.238281 35.519531 24.238281 C 35.054688 23.519531 34.640625 22.769531 34.152344 22.066406 C 34.132812 22.785156 34.140625 23.507812 34.144531 24.230469 C 33.917969 24.238281 33.6875 24.238281 33.460938 24.234375 C 33.464844 23.128906 33.460938 22.019531 33.460938 20.914062 Z M 33.460938 20.914062 " fill-opacity="1" fill-rule="nonzero"/><g clip-path="url(#348eeae2f4)"><path fill="#ffffff" d="M 26.679688 16.351562 L 26.269531 16.351562 L 26.269531 16.546875 L 26.878906 16.546875 L 26.878906 15.941406 L 26.679688 15.941406 Z M 26.679688 16.351562 " fill-opacity="1" fill-rule="nonzero"/></g><g clip-path="url(#07527b1bd2)"><path stroke-linecap="butt" transform="matrix(0.736607, 0, 0, 0.736607, 20.256696, 9.926544)" fill="none" stroke-linejoin="miter" d="M 0.0015163 -0.00103542 L 0.0015163 9.093662 L 9.096214 9.093662 L 9.096214 -0.00103542 L 0.0015163 -0.00103542 " stroke="#049542" stroke-width="2" stroke-opacity="1" stroke-miterlimit="4"/></g><g clip-path="url(#4587ecc8bb)"><path fill="#f61402" d="M 29.832031 6.273438 L 29.628906 6.40625 C 29.050781 6.824219 28.210938 7.738281 27.117188 9.144531 C 25.953125 10.695312 24.636719 12.554688 23.171875 14.730469 L 20.257812 12.371094 L 22.90625 16.179688 C 23.113281 16.433594 23.289062 16.515625 23.433594 16.429688 C 23.554688 16.347656 23.648438 16.246094 23.710938 16.132812 C 24.46875 14.632812 25.089844 13.519531 25.570312 12.792969 L 29.832031 6.273438 " fill-opacity="1" fill-rule="nonzero"/></g><path fill="#f61402" d="M 22.867188 14.957031 L 22.859375 14.96875 C 22.839844 15.007812 22.832031 15.027344 22.832031 15.03125 L 22.828125 15.042969 C 22.828125 15.042969 22.828125 15.046875 22.824219 15.050781 L 22.824219 15.054688 C 22.824219 15.0625 22.824219 15.070312 22.828125 15.078125 C 22.828125 15.085938 22.832031 15.089844 22.839844 15.097656 C 22.839844 15.101562 22.84375 15.101562 22.847656 15.105469 C 22.847656 15.105469 22.851562 15.109375 22.859375 15.113281 C 22.871094 15.117188 22.878906 15.121094 22.882812 15.121094 C 22.890625 15.125 22.898438 15.125 22.90625 15.125 L 22.867188 14.957031 " fill-opacity="1" fill-rule="nonzero"/><g clip-path="url(#fc7287d27d)"><path fill="#f61402" d="M 29.007812 7.03125 L 29.003906 7.03125 C 28.769531 7.191406 28.585938 7.332031 28.457031 7.453125 C 26.90625 9.332031 25.78125 10.726562 25.082031 11.628906 C 24.394531 12.539062 23.886719 13.238281 23.5625 13.726562 C 23.421875 13.933594 23.214844 14.292969 22.945312 14.808594 C 22.894531 14.929688 22.878906 14.984375 22.902344 14.972656 L 23.753906 14.769531 L 26.359375 11.039062 L 28.957031 7.144531 C 29.003906 7.070312 29.023438 7.03125 29.007812 7.03125 " fill-opacity="1" fill-rule="nonzero"/></g></svg>