<svg xmlns="http://www.w3.org/2000/svg" xmlns:xlink="http://www.w3.org/1999/xlink" width="800" zoomAndPan="magnify" viewBox="0 0 600 89.999999" height="120" preserveAspectRatio="xMidYMid meet" version="1.0"><defs><g/><clipPath id="7268f4ee24"><path d="M 257 34 L 271 34 L 271 61 L 257 61 Z M 257 34 " clip-rule="nonzero"/></clipPath><clipPath id="0499c2eefe"><path d="M 270.761719 34.660156 L 283.832031 47.726562 L 270.566406 60.988281 L 257.5 47.921875 Z M 270.761719 34.660156 " clip-rule="nonzero"/></clipPath><clipPath id="beab93cfec"><path d="M 270.761719 34.660156 L 283.832031 47.726562 L 270.566406 60.988281 L 257.5 47.921875 Z M 270.761719 34.660156 " clip-rule="nonzero"/></clipPath><clipPath id="4fc60ff320"><path d="M 4.792969 24.371094 L 22.171875 24.371094 L 22.171875 53.328125 L 4.792969 53.328125 Z M 4.792969 24.371094 " clip-rule="nonzero"/></clipPath></defs><g fill="#d20301" fill-opacity="1"><g transform="translate(276.640858, 46.033682)"><g><path d="M 10.390625 -3.671875 L 4.46875 -3.671875 L 2.453125 0 L -0.90625 0 L 8.03125 -15.734375 L 9.421875 -15.734375 C 10.390625 -15.734375 10.972656 -15.285156 11.171875 -14.390625 L 14.234375 0 L 11.109375 0 Z M 5.78125 -6.265625 L 10 -6.265625 L 8.921875 -11.9375 L 8.90625 -11.9375 Z M 5.78125 -6.265625 "/></g></g></g><g fill="#d20301" fill-opacity="1"><g transform="translate(292.917597, 46.033682)"><g><path d="M 3.171875 -15.734375 L 5.796875 -15.734375 L 11.609375 -5.03125 L 13.484375 -15.734375 L 16.53125 -15.734375 L 13.765625 0 L 11.125 0 L 5.328125 -10.703125 L 3.4375 0 L 0.40625 0 Z M 3.171875 -15.734375 "/></g></g></g><g fill="#d20301" fill-opacity="1"><g transform="translate(310.026156, 46.033682)"><g><path d="M 3.171875 -15.734375 L 6.265625 -15.734375 L 5.125 -9.234375 L 12.453125 -9.234375 L 13.609375 -15.734375 L 16.703125 -15.734375 L 13.9375 0 L 10.84375 0 L 11.984375 -6.546875 L 4.65625 -6.546875 L 3.5 0 L 0.40625 0 Z M 3.171875 -15.734375 "/></g></g></g><g fill="#d20301" fill-opacity="1"><g transform="translate(327.314568, 46.033682)"><g/></g></g><g fill="#d20301" fill-opacity="1"><g transform="translate(334.756036, 46.033682)"><g><path d="M 2.578125 0 C 2.015625 0 1.566406 -0.148438 1.234375 -0.453125 C 0.898438 -0.765625 0.734375 -1.175781 0.734375 -1.6875 C 0.734375 -1.757812 0.75 -1.898438 0.78125 -2.109375 L 3.1875 -15.734375 L 15.171875 -15.734375 L 14.703125 -13.046875 L 5.828125 -13.046875 L 5.171875 -9.40625 L 13.375 -9.40625 L 12.90625 -6.703125 L 4.703125 -6.703125 L 4 -2.703125 L 12.890625 -2.703125 L 12.390625 0 Z M 2.578125 0 "/></g></g></g><g fill="#d20301" fill-opacity="1"><g transform="translate(349.841247, 46.033682)"><g><path d="M 3.171875 -15.734375 L 5.75 -15.734375 L 9.265625 -6.390625 L 15.9375 -15.734375 L 18.890625 -15.734375 L 16.125 0 L 13.078125 0 L 14.84375 -9.953125 L 10.484375 -3.984375 C 10.191406 -3.585938 9.914062 -3.300781 9.65625 -3.125 C 9.394531 -2.945312 9.109375 -2.859375 8.796875 -2.859375 L 7.9375 -2.859375 L 5.1875 -9.953125 L 3.4375 0 L 0.40625 0 Z M 3.171875 -15.734375 "/></g></g></g><g fill="#d20301" fill-opacity="1"><g transform="translate(369.310371, 46.033682)"><g/></g></g><g fill="#d20301" fill-opacity="1"><g transform="translate(376.751835, 46.033682)"><g><path d="M 6.09375 0.1875 C 4.488281 0.1875 3.21875 -0.238281 2.28125 -1.09375 C 1.34375 -1.957031 0.875 -3.113281 0.875 -4.5625 C 0.875 -4.90625 0.910156 -5.316406 0.984375 -5.796875 L 1.703125 -9.9375 C 2.035156 -11.8125 2.78125 -13.273438 3.9375 -14.328125 C 5.101562 -15.390625 6.5625 -15.921875 8.3125 -15.921875 L 10.6875 -15.921875 C 12.257812 -15.921875 13.5 -15.507812 14.40625 -14.6875 C 15.320312 -13.863281 15.78125 -12.753906 15.78125 -11.359375 C 15.78125 -11.023438 15.742188 -10.632812 15.671875 -10.1875 L 12.609375 -10.1875 C 12.660156 -10.4375 12.6875 -10.679688 12.6875 -10.921875 C 12.6875 -11.617188 12.5 -12.164062 12.125 -12.5625 C 11.75 -12.96875 11.222656 -13.171875 10.546875 -13.171875 L 8.1875 -13.171875 C 7.300781 -13.171875 6.554688 -12.867188 5.953125 -12.265625 C 5.359375 -11.671875 4.972656 -10.847656 4.796875 -9.796875 L 4.109375 -5.9375 C 4.054688 -5.519531 4.03125 -5.226562 4.03125 -5.0625 C 4.03125 -4.289062 4.222656 -3.679688 4.609375 -3.234375 C 4.992188 -2.785156 5.535156 -2.5625 6.234375 -2.5625 L 8.640625 -2.5625 C 9.472656 -2.5625 10.175781 -2.859375 10.75 -3.453125 C 11.332031 -4.046875 11.722656 -4.863281 11.921875 -5.90625 L 14.96875 -5.90625 C 14.625 -3.988281 13.882812 -2.492188 12.75 -1.421875 C 11.613281 -0.347656 10.195312 0.1875 8.5 0.1875 Z M 6.09375 0.1875 "/></g></g></g><g fill="#d20301" fill-opacity="1"><g transform="translate(393.18595, 46.033682)"><g><path d="M 10.390625 -3.671875 L 4.46875 -3.671875 L 2.453125 0 L -0.90625 0 L 8.03125 -15.734375 L 9.421875 -15.734375 C 10.390625 -15.734375 10.972656 -15.285156 11.171875 -14.390625 L 14.234375 0 L 11.109375 0 Z M 5.78125 -6.265625 L 10 -6.265625 L 8.921875 -11.9375 L 8.90625 -11.9375 Z M 9.4375 -21.46875 L 11.4375 -21.46875 L 14.09375 -17.28125 L 11.4375 -17.28125 L 10.15625 -19.46875 L 8.09375 -17.28125 L 5.328125 -17.28125 Z M 9.4375 -21.46875 "/></g></g></g><g fill="#d20301" fill-opacity="1"><g transform="translate(409.462693, 46.033682)"><g><path d="M 5.875 -6.109375 L 1.734375 -15.734375 L 4.921875 -15.734375 L 7.734375 -8.96875 L 12.921875 -15.734375 L 16.484375 -15.734375 L 8.96875 -6.109375 L 7.890625 0 L 4.796875 0 Z M 5.875 -6.109375 "/></g></g></g><g fill="#d20301" fill-opacity="1"><g transform="translate(425.087459, 46.033682)"><g/></g></g><g fill="#d20301" fill-opacity="1"><g transform="translate(432.528932, 46.033682)"><g><path d="M 8.65625 -8.84375 L 13.984375 0 L 10.4375 0 L 6.3125 -6.71875 L 4.390625 -4.984375 L 3.5 0 L 0.40625 0 L 3.171875 -15.734375 L 6.265625 -15.734375 L 5.109375 -9.109375 L 12.359375 -15.734375 L 16.34375 -15.734375 Z M 8.65625 -8.84375 "/></g></g></g><g fill="#d20301" fill-opacity="1"><g transform="translate(448.648295, 46.033682)"><g><path d="M 3.171875 -15.734375 L 6.265625 -15.734375 L 5.125 -9.234375 L 12.453125 -9.234375 L 13.609375 -15.734375 L 16.703125 -15.734375 L 13.9375 0 L 10.84375 0 L 11.984375 -6.546875 L 4.65625 -6.546875 L 3.5 0 L 0.40625 0 Z M 3.171875 -15.734375 "/></g></g></g><g fill="#d20301" fill-opacity="1"><g transform="translate(465.936705, 46.033682)"><g><path d="M 2.578125 0 C 2.015625 0 1.566406 -0.148438 1.234375 -0.453125 C 0.898438 -0.765625 0.734375 -1.175781 0.734375 -1.6875 C 0.734375 -1.757812 0.75 -1.898438 0.78125 -2.109375 L 3.1875 -15.734375 L 15.171875 -15.734375 L 14.703125 -13.046875 L 5.828125 -13.046875 L 5.171875 -9.40625 L 13.375 -9.40625 L 12.90625 -6.703125 L 4.703125 -6.703125 L 4 -2.703125 L 12.890625 -2.703125 L 12.390625 0 Z M 15.09375 -24.4375 L 18.015625 -24.4375 L 15.171875 -21.0625 L 12.65625 -21.0625 Z M 9.28125 -21.46875 L 11.28125 -21.46875 L 13.9375 -17.28125 L 11.28125 -17.28125 L 10 -19.46875 L 7.9375 -17.28125 L 5.171875 -17.28125 Z M 9.28125 -21.46875 "/></g></g></g><g fill="#d20301" fill-opacity="1"><g transform="translate(5.188993, 69.893362)"><g><path d="M 28.28125 -45.3125 L 41.4375 -45.3125 L 69.90625 0 L 55.03125 0 L 49.90625 -8.421875 L 19.75 -8.421875 L 14.6875 0 L -0.1875 0 Z M 43.953125 -18.3125 L 34.828125 -33.46875 L 25.703125 -18.3125 Z M 43.953125 -18.3125 "/></g></g></g><g fill="#d20301" fill-opacity="1"><g transform="translate(74.910122, 69.893362)"><g><path d="M 59.484375 -28.09375 L 59.484375 -17.28125 L 17.546875 -17.28125 L 17.546875 -11.203125 L 61.171875 -11.203125 L 61.171875 0 L 4.859375 0 L 4.859375 -45.3125 L 61.046875 -45.3125 L 61.046875 -34.109375 L 17.546875 -34.109375 L 17.546875 -28.09375 Z M 59.484375 -28.09375 "/></g></g></g><g fill="#d20301" fill-opacity="1"><g transform="translate(139.711277, 69.893362)"><g><path d="M 20.265625 -11.203125 L 63.1875 -11.203125 L 63.1875 0 L 17.609375 0 C 13.546875 0 10.222656 -1.226562 7.640625 -3.6875 C 5.046875 -6.144531 3.75 -9.296875 3.75 -13.140625 L 3.75 -32.171875 C 3.75 -36.015625 5.046875 -39.164062 7.640625 -41.625 C 10.222656 -44.082031 13.546875 -45.3125 17.609375 -45.3125 L 62.59375 -45.3125 L 62.59375 -34.109375 L 20.265625 -34.109375 C 19.179688 -34.109375 18.269531 -33.753906 17.53125 -33.046875 C 16.800781 -32.335938 16.4375 -31.421875 16.4375 -30.296875 L 16.4375 -15.015625 C 16.4375 -13.890625 16.800781 -12.972656 17.53125 -12.265625 C 18.269531 -11.554688 19.179688 -11.203125 20.265625 -11.203125 Z M 20.265625 -11.203125 "/></g></g></g><g fill="#d20301" fill-opacity="1"><g transform="translate(205.418733, 69.893362)"><g><path d="M 4.859375 -45.3125 L 17.546875 -45.3125 L 17.546875 -27.640625 L 29.96875 -27.640625 L 48.609375 -45.3125 L 66.421875 -45.3125 L 41.625 -22.203125 L 67.125 0 L 49.328125 0 L 30.171875 -16.828125 L 17.546875 -16.828125 L 17.546875 0 L 4.859375 0 Z M 4.859375 -45.3125 "/></g></g></g><g clip-path="url(#7268f4ee24)"><g clip-path="url(#0499c2eefe)"><g clip-path="url(#beab93cfec)"><path fill="#000000" d="M 270.691406 34.816406 L 257.640625 47.867188 L 270.597656 60.824219 Z M 270.691406 34.816406 " fill-opacity="1" fill-rule="nonzero"/><path fill="#000000" d="M 270.65625 60.972656 L 257.554688 47.867188 L 270.753906 34.667969 Z M 257.730469 47.867188 L 270.535156 60.675781 L 270.628906 34.964844 Z M 257.730469 47.867188 " fill-opacity="1" fill-rule="nonzero"/></g></g></g><g clip-path="url(#4fc60ff320)"><path fill="#000000" d="M 4.792969 53.3125 L 4.800781 24.382812 C 10.589844 24.390625 16.378906 24.398438 22.171875 24.40625 C 16.378906 34.042969 10.585938 43.679688 4.792969 53.3125 " fill-opacity="1" fill-rule="nonzero"/></g><g fill="#000000" fill-opacity="1"><g transform="translate(276.640858, 68.758683)"><g><path d="M 3.5625 -9.15625 L 0.40625 -9.15625 L 0.40625 -11.28125 L 9.515625 -11.28125 L 9.515625 -9.15625 L 6.3125 -9.15625 L 6.3125 0 L 3.5625 0 Z M 3.5625 -9.15625 "/></g></g></g><g fill="#000000" fill-opacity="1"><g transform="translate(286.564958, 68.758683)"><g><path d="M 12.84375 -12.703125 L 12.84375 -11.75 C 12.84375 -10.8125 12.253906 -10.21875 11.078125 -9.96875 L 11.078125 -4.203125 C 11.078125 -2.679688 10.65625 -1.539062 9.8125 -0.78125 C 8.96875 -0.0195312 7.828125 0.359375 6.390625 0.359375 C 4.640625 0.359375 3.335938 -0.0078125 2.484375 -0.75 C 1.628906 -1.5 1.203125 -2.648438 1.203125 -4.203125 L 1.203125 -11.28125 L 4.0625 -11.28125 L 4.0625 -4.328125 C 4.0625 -3.460938 4.234375 -2.820312 4.578125 -2.40625 C 4.929688 -1.988281 5.488281 -1.78125 6.25 -1.78125 C 6.96875 -1.78125 7.515625 -1.992188 7.890625 -2.421875 C 8.273438 -2.847656 8.46875 -3.484375 8.46875 -4.328125 L 8.46875 -11.28125 L 10.34375 -11.28125 C 10.632812 -11.3125 10.867188 -11.394531 11.046875 -11.53125 C 11.222656 -11.664062 11.3125 -11.847656 11.3125 -12.078125 L 11.3125 -12.703125 Z M 12.84375 -12.703125 "/></g></g></g><g fill="#000000" fill-opacity="1"><g transform="translate(300.326824, 68.758683)"><g/></g></g><g fill="#000000" fill-opacity="1"><g transform="translate(304.99301, 68.758683)"><g><path d="M 1.203125 -11.28125 L 5.734375 -11.28125 C 7.628906 -11.28125 9.03125 -10.804688 9.9375 -9.859375 C 10.851562 -8.921875 11.3125 -7.507812 11.3125 -5.625 C 11.3125 -3.757812 10.851562 -2.351562 9.9375 -1.40625 C 9.03125 -0.46875 7.628906 0 5.734375 0 L 1.203125 0 Z M 5.40625 -2.109375 C 6.4375 -2.109375 7.207031 -2.394531 7.71875 -2.96875 C 8.238281 -3.550781 8.5 -4.4375 8.5 -5.625 C 8.5 -6.84375 8.238281 -7.734375 7.71875 -8.296875 C 7.207031 -8.867188 6.4375 -9.15625 5.40625 -9.15625 L 3.9375 -9.15625 L 3.9375 -2.109375 Z M 5.40625 -2.109375 "/></g></g></g><g fill="#000000" fill-opacity="1"><g transform="translate(317.01351, 68.758683)"><g><path d="M 6.390625 0.359375 C 4.640625 0.359375 3.335938 -0.0078125 2.484375 -0.75 C 1.628906 -1.5 1.203125 -2.648438 1.203125 -4.203125 L 1.203125 -11.28125 L 4.0625 -11.28125 L 4.0625 -4.328125 C 4.0625 -3.460938 4.234375 -2.820312 4.578125 -2.40625 C 4.929688 -1.988281 5.488281 -1.78125 6.25 -1.78125 C 6.96875 -1.78125 7.515625 -1.992188 7.890625 -2.421875 C 8.273438 -2.847656 8.46875 -3.484375 8.46875 -4.328125 L 8.46875 -11.28125 L 11.078125 -11.28125 L 11.078125 -4.203125 C 11.078125 -2.679688 10.65625 -1.539062 9.8125 -0.78125 C 8.96875 -0.0195312 7.828125 0.359375 6.390625 0.359375 Z M 6.390625 0.359375 "/></g></g></g><g fill="#000000" fill-opacity="1"><g transform="translate(329.287608, 68.758683)"><g><path d="M 7.375 -4.828125 L 7.375 0 L 4.625 0 L 4.625 -4.890625 L 0.359375 -11.28125 L 3.71875 -11.28125 L 6.265625 -7 L 8.59375 -11.28125 L 11.3125 -11.28125 Z M 7.375 -4.828125 "/></g></g></g><g fill="#000000" fill-opacity="1"><g transform="translate(340.986885, 68.758683)"><g/></g></g><g fill="#000000" fill-opacity="1"><g transform="translate(345.653073, 68.758683)"><g><path d="M 5.734375 -11.28125 C 7.628906 -11.28125 9.03125 -10.804688 9.9375 -9.859375 C 10.851562 -8.921875 11.3125 -7.507812 11.3125 -5.625 C 11.3125 -3.757812 10.851562 -2.351562 9.9375 -1.40625 C 9.03125 -0.46875 7.628906 0 5.734375 0 L 1.203125 0 L 1.203125 -4.875 L 0.09375 -4.875 L 0.09375 -6.40625 L 1.203125 -6.40625 L 1.203125 -11.28125 Z M 5.40625 -2.109375 C 6.4375 -2.109375 7.207031 -2.394531 7.71875 -2.96875 C 8.238281 -3.550781 8.5 -4.4375 8.5 -5.625 C 8.5 -6.84375 8.238281 -7.734375 7.71875 -8.296875 C 7.207031 -8.867188 6.4375 -9.15625 5.40625 -9.15625 L 3.9375 -9.15625 L 3.9375 -6.40625 L 5.171875 -6.40625 L 5.171875 -4.875 L 3.9375 -4.875 L 3.9375 -2.109375 Z M 5.40625 -2.109375 "/></g></g></g><g fill="#000000" fill-opacity="1"><g transform="translate(357.673575, 68.758683)"><g><path d="M 6.21875 0.234375 C 4.5 0.234375 3.15625 -0.253906 2.1875 -1.234375 C 1.21875 -2.210938 0.734375 -3.675781 0.734375 -5.625 C 0.734375 -7.539062 1.207031 -9 2.15625 -10 C 3.101562 -11 4.457031 -11.5 6.21875 -11.5 C 7.945312 -11.5 9.296875 -11.007812 10.265625 -10.03125 C 11.242188 -9.0625 11.734375 -7.597656 11.734375 -5.640625 C 11.734375 -3.722656 11.253906 -2.265625 10.296875 -1.265625 C 9.347656 -0.265625 7.988281 0.234375 6.21875 0.234375 Z M 6.21875 -2.015625 C 7.113281 -2.015625 7.785156 -2.296875 8.234375 -2.859375 C 8.679688 -3.421875 8.90625 -4.347656 8.90625 -5.640625 C 8.90625 -6.941406 8.679688 -7.867188 8.234375 -8.421875 C 7.796875 -8.984375 7.125 -9.265625 6.21875 -9.265625 C 5.332031 -9.265625 4.664062 -8.984375 4.21875 -8.421875 C 3.769531 -7.859375 3.546875 -6.921875 3.546875 -5.609375 C 3.546875 -4.328125 3.769531 -3.40625 4.21875 -2.84375 C 4.664062 -2.289062 5.332031 -2.015625 6.21875 -2.015625 Z M 5.359375 0.84375 L 7.1875 0.84375 L 7.1875 2.53125 L 5.359375 2.53125 Z M 5.265625 -14.40625 L 7.3125 -14.40625 L 8.78125 -12.359375 L 7.109375 -12.359375 L 6.28125 -13.34375 L 5.453125 -12.359375 L 3.765625 -12.359375 Z M 5.265625 -14.40625 "/></g></g></g><g fill="#000000" fill-opacity="1"><g transform="translate(370.133643, 68.758683)"><g><path d="M 6.1875 0.21875 C 2.488281 0.21875 0.640625 -1.726562 0.640625 -5.625 C 0.640625 -9.5625 2.488281 -11.53125 6.1875 -11.53125 C 7.320312 -11.53125 8.515625 -11.253906 9.765625 -10.703125 L 9.765625 -8.3125 C 8.691406 -9.039062 7.625 -9.40625 6.5625 -9.40625 C 5.519531 -9.40625 4.742188 -9.113281 4.234375 -8.53125 C 3.722656 -7.945312 3.46875 -6.976562 3.46875 -5.625 C 3.46875 -4.269531 3.726562 -3.3125 4.25 -2.75 C 4.769531 -2.1875 5.578125 -1.90625 6.671875 -1.90625 C 7.128906 -1.90625 7.617188 -1.988281 8.140625 -2.15625 C 8.671875 -2.332031 9.210938 -2.597656 9.765625 -2.953125 L 9.765625 -0.578125 C 9.304688 -0.335938 8.742188 -0.144531 8.078125 0 C 7.410156 0.144531 6.78125 0.21875 6.1875 0.21875 Z M 6.1875 0.21875 "/></g></g></g><g fill="#000000" fill-opacity="1"><g transform="translate(380.784716, 68.758683)"><g/></g></g><g fill="#000000" fill-opacity="1"><g transform="translate(385.4509, 68.758683)"><g><path d="M 1.203125 -11.28125 L 3.9375 -11.28125 L 3.9375 -2.140625 L 8.84375 -2.140625 L 8.84375 0 L 1.203125 0 Z M 1.203125 -11.28125 "/></g></g></g><g fill="#000000" fill-opacity="1"><g transform="translate(394.833991, 68.758683)"><g><path d="M 7.828125 -2.4375 L 3.625 -2.4375 L 2.8125 0 L 0.21875 0 L 4.484375 -11.28125 L 7.46875 -11.28125 L 11.46875 0 L 8.65625 0 Z M 7.15625 -4.453125 L 5.71875 -8.703125 L 4.296875 -4.453125 Z M 4.9375 0.84375 L 6.765625 0.84375 L 6.765625 2.53125 L 4.9375 2.53125 Z M 4.84375 -14.0625 L 6.890625 -14.0625 L 8.359375 -12.015625 L 6.6875 -12.015625 L 5.859375 -13 L 5.03125 -12.015625 L 3.34375 -12.015625 Z M 4.84375 -14.0625 "/></g></g></g><g fill="#000000" fill-opacity="1"><g transform="translate(406.516357, 68.758683)"><g><path d="M 3.9375 0 L 1.203125 0 L 1.203125 -11.28125 L 6.265625 -11.28125 C 7.617188 -11.28125 8.664062 -10.972656 9.40625 -10.359375 C 10.144531 -9.753906 10.515625 -8.835938 10.515625 -7.609375 C 10.515625 -6.359375 10.140625 -5.394531 9.390625 -4.71875 C 8.640625 -4.039062 7.597656 -3.703125 6.265625 -3.703125 L 3.9375 -3.703125 Z M 5.9375 -5.8125 C 6.488281 -5.8125 6.894531 -5.953125 7.15625 -6.234375 C 7.425781 -6.523438 7.5625 -6.921875 7.5625 -7.421875 C 7.5625 -8.566406 7.019531 -9.140625 5.9375 -9.140625 L 3.9375 -9.140625 L 3.9375 -5.8125 Z M 5.9375 -5.8125 "/></g></g></g><g fill="#000000" fill-opacity="1"><g transform="translate(417.742255, 68.758683)"><g><path d="M 1.328125 -6.046875 L 6.484375 -6.046875 L 6.484375 -4.3125 L 1.328125 -4.3125 Z M 1.328125 -6.046875 "/></g></g></g><g fill="#000000" fill-opacity="1"><g transform="translate(425.586862, 68.758683)"><g><path d="M 1.203125 -11.28125 L 3.9375 -11.28125 L 3.9375 -2.140625 L 8.84375 -2.140625 L 8.84375 0 L 1.203125 0 Z M 1.203125 -11.28125 "/></g></g></g><g fill="#000000" fill-opacity="1"><g transform="translate(434.969953, 68.758683)"><g><path d="M 7.828125 -2.4375 L 3.625 -2.4375 L 2.8125 0 L 0.21875 0 L 4.484375 -11.28125 L 7.46875 -11.28125 L 11.46875 0 L 8.65625 0 Z M 7.15625 -4.453125 L 5.71875 -8.703125 L 4.296875 -4.453125 Z M 3.59375 -13.984375 L 5.828125 -13.984375 L 6.625 -12.109375 L 5.234375 -12.109375 Z M 3.59375 -13.984375 "/></g></g></g><g fill="#000000" fill-opacity="1"><g transform="translate(446.652328, 68.758683)"><g><path d="M 13.109375 -11.28125 L 13.109375 0 L 10.359375 0 L 10.359375 -7.625 L 7.046875 -3.21875 L 3.828125 -7.609375 L 3.828125 0 L 1.203125 0 L 1.203125 -11.28125 L 3.984375 -11.28125 L 7.15625 -6.875 L 10.375 -11.28125 Z M 13.109375 -11.28125 "/></g></g></g><g fill="#000000" fill-opacity="1"><g transform="translate(460.955212, 68.758683)"><g/></g></g><g fill="#000000" fill-opacity="1"><g transform="translate(465.621404, 68.758683)"><g><path d="M 6.1875 0.21875 C 2.488281 0.21875 0.640625 -1.726562 0.640625 -5.625 C 0.640625 -9.5625 2.488281 -11.53125 6.1875 -11.53125 C 7.320312 -11.53125 8.515625 -11.253906 9.765625 -10.703125 L 9.765625 -8.3125 C 8.691406 -9.039062 7.625 -9.40625 6.5625 -9.40625 C 5.519531 -9.40625 4.742188 -9.113281 4.234375 -8.53125 C 3.722656 -7.945312 3.46875 -6.976562 3.46875 -5.625 C 3.46875 -4.269531 3.726562 -3.3125 4.25 -2.75 C 4.769531 -2.1875 5.578125 -1.90625 6.671875 -1.90625 C 7.128906 -1.90625 7.617188 -1.988281 8.140625 -2.15625 C 8.671875 -2.332031 9.210938 -2.597656 9.765625 -2.953125 L 9.765625 -0.578125 C 9.304688 -0.335938 8.742188 -0.144531 8.078125 0 C 7.410156 0.144531 6.78125 0.21875 6.1875 0.21875 Z M 6.1875 0.21875 "/></g></g></g><g fill="#000000" fill-opacity="1"><g transform="translate(476.272478, 68.758683)"><g><path d="M 1.203125 -11.28125 L 3.9375 -11.28125 L 3.9375 -6.71875 L 8.078125 -6.71875 L 8.078125 -11.28125 L 10.796875 -11.28125 L 10.796875 0 L 8.078125 0 L 8.078125 -4.484375 L 3.9375 -4.484375 L 3.9375 0 L 1.203125 0 Z M 1.203125 -11.28125 "/></g></g></g><g fill="#000000" fill-opacity="1"><g transform="translate(488.276078, 68.758683)"><g><path d="M 6.390625 0.359375 C 4.640625 0.359375 3.335938 -0.0078125 2.484375 -0.75 C 1.628906 -1.5 1.203125 -2.648438 1.203125 -4.203125 L 1.203125 -11.28125 L 4.0625 -11.28125 L 4.0625 -4.328125 C 4.0625 -3.460938 4.234375 -2.820312 4.578125 -2.40625 C 4.929688 -1.988281 5.488281 -1.78125 6.25 -1.78125 C 6.96875 -1.78125 7.515625 -1.992188 7.890625 -2.421875 C 8.273438 -2.847656 8.46875 -3.484375 8.46875 -4.328125 L 8.46875 -11.28125 L 11.078125 -11.28125 L 11.078125 -4.203125 C 11.078125 -2.679688 10.65625 -1.539062 9.8125 -0.78125 C 8.96875 -0.0195312 7.828125 0.359375 6.390625 0.359375 Z M 5.3125 -12.984375 C 5.507812 -12.992188 5.660156 -13.035156 5.765625 -13.109375 C 5.878906 -13.191406 5.9375 -13.285156 5.9375 -13.390625 C 5.9375 -13.648438 5.703125 -13.78125 5.234375 -13.78125 C 5.085938 -13.78125 4.921875 -13.765625 4.734375 -13.734375 L 4.734375 -14.71875 C 4.972656 -14.769531 5.296875 -14.796875 5.703125 -14.796875 C 6.265625 -14.796875 6.722656 -14.6875 7.078125 -14.46875 C 7.429688 -14.257812 7.609375 -13.929688 7.609375 -13.484375 C 7.609375 -13.171875 7.519531 -12.914062 7.34375 -12.71875 C 7.175781 -12.53125 6.941406 -12.429688 6.640625 -12.421875 L 6.640625 -12.015625 L 5.3125 -12.015625 Z M 5.3125 -12.984375 "/></g></g></g><g fill="#000000" fill-opacity="1"><g transform="translate(500.55018, 68.758683)"><g/></g></g><g fill="#000000" fill-opacity="1"><g transform="translate(505.216372, 68.758683)"><g><path d="M 6.1875 0.21875 C 2.488281 0.21875 0.640625 -1.726562 0.640625 -5.625 C 0.640625 -9.5625 2.488281 -11.53125 6.1875 -11.53125 C 7.320312 -11.53125 8.515625 -11.253906 9.765625 -10.703125 L 9.765625 -8.3125 C 8.691406 -9.039062 7.625 -9.40625 6.5625 -9.40625 C 5.519531 -9.40625 4.742188 -9.113281 4.234375 -8.53125 C 3.722656 -7.945312 3.46875 -6.976562 3.46875 -5.625 C 3.46875 -4.269531 3.726562 -3.3125 4.25 -2.75 C 4.769531 -2.1875 5.578125 -1.90625 6.671875 -1.90625 C 7.128906 -1.90625 7.617188 -1.988281 8.140625 -2.15625 C 8.671875 -2.332031 9.210938 -2.597656 9.765625 -2.953125 L 9.765625 -0.578125 C 9.304688 -0.335938 8.742188 -0.144531 8.078125 0 C 7.410156 0.144531 6.78125 0.21875 6.1875 0.21875 Z M 6.1875 0.21875 "/></g></g></g><g fill="#000000" fill-opacity="1"><g transform="translate(515.867445, 68.758683)"><g><path d="M 6.390625 0.359375 C 4.640625 0.359375 3.335938 -0.0078125 2.484375 -0.75 C 1.628906 -1.5 1.203125 -2.648438 1.203125 -4.203125 L 1.203125 -11.28125 L 4.0625 -11.28125 L 4.0625 -4.328125 C 4.0625 -3.460938 4.234375 -2.820312 4.578125 -2.40625 C 4.929688 -1.988281 5.488281 -1.78125 6.25 -1.78125 C 6.96875 -1.78125 7.515625 -1.992188 7.890625 -2.421875 C 8.273438 -2.847656 8.46875 -3.484375 8.46875 -4.328125 L 8.46875 -11.28125 L 11.078125 -11.28125 L 11.078125 -4.203125 C 11.078125 -2.679688 10.65625 -1.539062 9.8125 -0.78125 C 8.96875 -0.0195312 7.828125 0.359375 6.390625 0.359375 Z M 6.390625 0.359375 "/></g></g></g><g fill="#000000" fill-opacity="1"><g transform="translate(528.141547, 68.758683)"><g><path d="M 6.21875 0.234375 C 4.5 0.234375 3.15625 -0.253906 2.1875 -1.234375 C 1.21875 -2.210938 0.734375 -3.675781 0.734375 -5.625 C 0.734375 -7.539062 1.207031 -9 2.15625 -10 C 3.101562 -11 4.457031 -11.5 6.21875 -11.5 C 7.945312 -11.5 9.296875 -11.007812 10.265625 -10.03125 C 11.242188 -9.0625 11.734375 -7.597656 11.734375 -5.640625 C 11.734375 -3.722656 11.253906 -2.265625 10.296875 -1.265625 C 9.347656 -0.265625 7.988281 0.234375 6.21875 0.234375 Z M 6.21875 -2.015625 C 7.113281 -2.015625 7.785156 -2.296875 8.234375 -2.859375 C 8.679688 -3.421875 8.90625 -4.347656 8.90625 -5.640625 C 8.90625 -6.941406 8.679688 -7.867188 8.234375 -8.421875 C 7.796875 -8.984375 7.125 -9.265625 6.21875 -9.265625 C 5.332031 -9.265625 4.664062 -8.984375 4.21875 -8.421875 C 3.769531 -7.859375 3.546875 -6.921875 3.546875 -5.609375 C 3.546875 -4.328125 3.769531 -3.40625 4.21875 -2.84375 C 4.664062 -2.289062 5.332031 -2.015625 6.21875 -2.015625 Z M 5.359375 0.84375 L 7.1875 0.84375 L 7.1875 2.53125 L 5.359375 2.53125 Z M 5.265625 -14.40625 L 7.3125 -14.40625 L 8.78125 -12.359375 L 7.109375 -12.359375 L 6.28125 -13.34375 L 5.453125 -12.359375 L 3.765625 -12.359375 Z M 5.265625 -14.40625 "/></g></g></g><g fill="#000000" fill-opacity="1"><g transform="translate(540.601624, 68.758683)"><g><path d="M 6.1875 0.21875 C 2.488281 0.21875 0.640625 -1.726562 0.640625 -5.625 C 0.640625 -9.5625 2.488281 -11.53125 6.1875 -11.53125 C 7.320312 -11.53125 8.515625 -11.253906 9.765625 -10.703125 L 9.765625 -8.3125 C 8.691406 -9.039062 7.625 -9.40625 6.5625 -9.40625 C 5.519531 -9.40625 4.742188 -9.113281 4.234375 -8.53125 C 3.722656 -7.945312 3.46875 -6.976562 3.46875 -5.625 C 3.46875 -4.269531 3.726562 -3.3125 4.25 -2.75 C 4.769531 -2.1875 5.578125 -1.90625 6.671875 -1.90625 C 7.128906 -1.90625 7.617188 -1.988281 8.140625 -2.15625 C 8.671875 -2.332031 9.210938 -2.597656 9.765625 -2.953125 L 9.765625 -0.578125 C 9.304688 -0.335938 8.742188 -0.144531 8.078125 0 C 7.410156 0.144531 6.78125 0.21875 6.1875 0.21875 Z M 6.1875 0.21875 "/></g></g></g><g fill="#000000" fill-opacity="1"><g transform="translate(551.252697, 68.758683)"><g/></g></g><g fill="#000000" fill-opacity="1"><g transform="translate(555.91889, 68.758683)"><g><path d="M 6.1875 0.21875 C 2.488281 0.21875 0.640625 -1.726562 0.640625 -5.625 C 0.640625 -9.5625 2.488281 -11.53125 6.1875 -11.53125 C 7.320312 -11.53125 8.515625 -11.253906 9.765625 -10.703125 L 9.765625 -8.3125 C 8.691406 -9.039062 7.625 -9.40625 6.5625 -9.40625 C 5.519531 -9.40625 4.742188 -9.113281 4.234375 -8.53125 C 3.722656 -7.945312 3.46875 -6.976562 3.46875 -5.625 C 3.46875 -4.269531 3.726562 -3.3125 4.25 -2.75 C 4.769531 -2.1875 5.578125 -1.90625 6.671875 -1.90625 C 7.128906 -1.90625 7.617188 -1.988281 8.140625 -2.15625 C 8.671875 -2.332031 9.210938 -2.597656 9.765625 -2.953125 L 9.765625 -0.578125 C 9.304688 -0.335938 8.742188 -0.144531 8.078125 0 C 7.410156 0.144531 6.78125 0.21875 6.1875 0.21875 Z M 6.1875 0.21875 "/></g></g></g><g fill="#000000" fill-opacity="1"><g transform="translate(566.569963, 68.758683)"><g><path d="M 1.203125 -11.28125 L 3.9375 -11.28125 L 3.9375 -6.71875 L 8.078125 -6.71875 L 8.078125 -11.28125 L 10.796875 -11.28125 L 10.796875 0 L 8.078125 0 L 8.078125 -4.484375 L 3.9375 -4.484375 L 3.9375 0 L 1.203125 0 Z M 1.203125 -11.28125 "/></g></g></g><g fill="#000000" fill-opacity="1"><g transform="translate(578.573563, 68.758683)"><g><path d="M 9.890625 -10.375 C 11.117188 -9.382812 11.734375 -7.804688 11.734375 -5.640625 C 11.734375 -3.722656 11.253906 -2.265625 10.296875 -1.265625 C 9.347656 -0.265625 7.988281 0.234375 6.21875 0.234375 C 4.5 0.234375 3.15625 -0.253906 2.1875 -1.234375 C 1.21875 -2.210938 0.734375 -3.675781 0.734375 -5.625 C 0.734375 -7.539062 1.207031 -9 2.15625 -10 C 3.101562 -11 4.457031 -11.5 6.21875 -11.5 C 6.90625 -11.5 7.523438 -11.425781 8.078125 -11.28125 C 8.367188 -11.300781 8.609375 -11.378906 8.796875 -11.515625 C 8.984375 -11.660156 9.078125 -11.847656 9.078125 -12.078125 L 9.078125 -12.703125 L 10.609375 -12.703125 L 10.609375 -11.75 C 10.609375 -11.144531 10.367188 -10.6875 9.890625 -10.375 Z M 6.21875 -2.015625 C 7.113281 -2.015625 7.785156 -2.296875 8.234375 -2.859375 C 8.679688 -3.421875 8.90625 -4.347656 8.90625 -5.640625 C 8.90625 -6.941406 8.679688 -7.867188 8.234375 -8.421875 C 7.796875 -8.984375 7.125 -9.265625 6.21875 -9.265625 C 5.332031 -9.265625 4.664062 -8.984375 4.21875 -8.421875 C 3.769531 -7.859375 3.546875 -6.921875 3.546875 -5.609375 C 3.546875 -4.328125 3.769531 -3.40625 4.21875 -2.84375 C 4.664062 -2.289062 5.332031 -2.015625 6.21875 -2.015625 Z M 6.21875 -2.015625 "/></g></g></g><g fill="#000000" fill-opacity="1"><g transform="translate(591.033622, 68.758683)"><g><path d="M 1.203125 -11.28125 L 3.9375 -11.28125 L 3.9375 0 L 1.203125 0 Z M 1.203125 -11.28125 "/></g></g></g></svg>