<svg xmlns="http://www.w3.org/2000/svg" width="173.914" height="36.944" viewBox="92.211 472.221 173.914 36.944"><g fill="none"><path fill="#0043a5" d="M148.048 480.803h5.683l-8.829 6.62 7.804 7.115h-6.202l-6.77-7.115Zm-7.337 0-2.03 13.735H134.4l2.03-13.735ZM158.745 489.419l-.757 5.119h-4.282l2.03-13.735h4.282l-.731 4.948h9.154l.73-4.948h4.284l-2.03 13.735h-4.283l.757-5.12ZM182.844 477.595h3.055c.187 0 .32.006.402.017a.52.52 0 0 1 .152.035c.02.01.036.039.043.085a.895.895 0 0 1-.013.238c-.026.17-.097.286-.213.346-.117.06-.367.118-.752.175a4.435 4.435 0 0 0-.29.05c-.417.064-.742.14-.971.23-.23.093-.417.265-.563.52a1.43 1.43 0 0 0-.131.364c-.032.14-.073.385-.126.738h1.97l.036-.238c.004-.023.036-.055.095-.094.06-.04.194-.066.4-.077h.016c.208-.017.4-.037.577-.06.177-.022.374-.064.589-.124.217-.06.422-.154.619-.285a1.04 1.04 0 0 0 .404-.48c.087-.128.155-.286.205-.467a5.57 5.57 0 0 0 .13-.65c.046-.311.05-.582.012-.81a1.005 1.005 0 0 0-.313-.584c-.173-.161-.42-.282-.741-.36-.321-.075-.73-.113-1.225-.113h-3.14Zm-2.021 11.646h5.307l-1.923-4.94Zm-1.99 2.959-1.625 2.338h-4.752l9.564-13.735h5.485l5.427 13.735h-4.752l-.91-2.338ZM198.467 490.451c-.043.29.015.491.172.603.156.11.479.166.969.166h7.772c.455 0 .8-.073 1.039-.218.237-.146.372-.328.405-.55l.234-1.579.587-3.976c.049-.329-.008-.553-.17-.669-.161-.117-.487-.175-.977-.175h-7.832c-.455 0-.788.076-1.001.226a.888.888 0 0 0-.378.618Zm-2.955-6.15c.082-.558.214-1.02.396-1.387.182-.367.47-.71.865-1.027a4.1 4.1 0 0 1 1.123-.697c.395-.162.88-.278 1.454-.349a20.313 20.313 0 0 1 2.054-.132c.796-.018 2.02-.027 3.676-.027 1.656 0 2.877.01 3.665.027.788.017 1.454.06 1.998.132.545.071.988.187 1.33.35.344.162.644.394.9.696.3.317.487.66.56 1.027.075.367.07.83-.011 1.387l-.294 1.987-.695 4.7c-.083.564-.217 1.037-.402 1.422-.185.383-.474.731-.866 1.044a4.038 4.038 0 0 1-1.12.674c-.403.16-.891.276-1.468.35-.577.075-1.28.122-2.111.145-.831.023-2.033.035-3.602.035-1.575 0-2.77-.012-3.582-.035a20.129 20.129 0 0 1-2.056-.145c-.557-.074-1.005-.19-1.343-.35a3.039 3.039 0 0 1-.92-.674 2.018 2.018 0 0 1-.558-1.044c-.071-.385-.065-.858.019-1.422ZM232.406 494.538h-4.273l1.56-10.554h-6.033l.471-3.18h16.14l-.469 3.18h-5.836ZM244.629 489.419l-.756 5.119h-4.282l2.03-13.735h4.28l-.73 4.948h9.155l.73-4.948h4.284l-2.03 13.735h-4.283l.756-5.12ZM260.863 478.636l4.7-1.783.562 1.86-4.76 1.553Zm4.305 2.167-2.03 13.735h-4.284l2.03-13.735Z"/><path fill="#00ccd6" d="m167.21 500.045-.644-.762h-5.294l-.56 3.787h6.052Zm2.383-.762-.781 5.29c-.071.474-.362.728-.875.762h-9.061c-.503-.034-.72-.288-.65-.762l1.022-6.91c.059-.401.345-.616.857-.643h7.553ZM184.656 499.283l-.895 6.052h-2.269l.782-5.29-.644-.762h-5.295l-.895 6.052h-2.263l1.133-7.67c.06-.403.346-.618.858-.646h7.553ZM190.838 503.07h8.32l-.334 2.265H189c-.502-.035-.72-.288-.648-.762l1.116-7.554h2.264ZM205.566 505.335h-2.264l1.23-8.315h2.263ZM221.602 499.283l-.894 6.052h-2.27l.782-5.29-.643-.762h-5.295l-.895 6.052h-2.264l1.133-7.67c.06-.403.346-.618.858-.646h7.553ZM237 497.02l-.334 2.264h-8.322l-.113.76h8.322l-.334 2.264h-8.323l-.112.762h8.321l-.334 2.264h-9.823c-.503-.034-.719-.288-.649-.76l1.021-6.91c.059-.402.345-.618.857-.644Z"/><path fill="#0043a5" d="M125.353 505.124c-.044 2.11-1.746 3.893-3.852 4.022a4.08 4.08 0 0 1-1.964-.356l-1.141-.771-9.947-6.739 7.47-9.253 8.343 10.219.307.38c.509.695.8 1.561.784 2.498ZM109.257 483.874l-4.075 3.48a7.6 7.6 0 0 1-8.836.756 10.646 10.646 0 0 1-3.88-3.998l-.255-.465v-6.43a4.997 4.997 0 0 1 5-4.996 5.336 5.336 0 0 1 4.131 1.96Z"/><path fill="#00ccd6" d="m124.811 481.009-.8.994-8.093 10.025-7.47 9.252-4.96 6.144a4.679 4.679 0 0 1-6.956.364l-3.213-3.23a3.811 3.811 0 0 1-1.108-2.68v-18.23l.255.465a10.653 10.653 0 0 0 3.88 3.998 7.6 7.6 0 0 0 8.836-.756l4.076-3.481 9.175-7.842.38-.323c.007-.004.016-.012.02-.012a4.086 4.086 0 0 1 3.17-.751c1.701.294 3.058 1.693 3.31 3.403a4.075 4.075 0 0 1-.502 2.66Z"/></g></svg>